<?xml version="1.0" standalone="no"?>
<!DOCTYPE svg PUBLIC "-//W3C//DTD SVG 20010904//EN"
 "http://www.w3.org/TR/2001/REC-SVG-20010904/DTD/svg10.dtd">
<svg version="1.0" xmlns="http://www.w3.org/2000/svg"
 width="16.000000pt" height="16.000000pt" viewBox="0 0 16.000000 16.000000"
 preserveAspectRatio="xMidYMid meet">
<metadata>
Created by potrace 1.11, written by Peter Selinger 2001-2013
</metadata>
<g transform="translate(0.000000,16.000000) scale(0.013223,-0.013223)"
fill="#000000" stroke="none">
<path d="M0 610 l0 -600 600 0 600 0 0 600 0 600 -600 0 -600 0 0 -600z m310
186 l0 -64 94 -4 c107 -3 137 -18 169 -79 14 -29 17 -56 15 -174 l-3 -140 -72
-3 -71 -3 -4 130 c-3 150 -8 160 -82 168 l-46 6 0 -152 0 -152 -72 3 -73 3 -3
263 -2 262 75 0 75 0 0 -64z m688 -77 c33 -21 52 -70 52 -135 0 -89 -8 -94
-157 -94 -69 0 -123 -4 -123 -9 0 -5 7 -17 16 -25 12 -13 40 -16 135 -16 l120
0 -3 -52 -3 -53 -146 -3 c-240 -4 -262 12 -263 190 -1 62 2 125 7 140 8 31 42
57 90 69 51 13 248 5 275 -12z"/>
<path d="M805 631 c-17 -3 -31 -14 -33 -24 -3 -15 5 -17 62 -17 59 0 66 2 66
20 0 11 -6 20 -12 20 -7 0 -22 2 -33 4 -11 2 -33 1 -50 -3z"/>
</g>
</svg>
